<mxfile host="app.diagrams.net" modified="2024-02-05T07:07:39.644Z" agent="Mozilla/5.0 (Macintosh; Intel Mac OS X 10_15_7) AppleWebKit/537.36 (KHTML, like Gecko) Chrome/121.0.0.0 Safari/537.36" etag="_lsGsCwMD5i6RKwbdTD-" version="23.1.1" type="github">
  <diagram name="Page-1" id="iQ7dKiwMl4B1It-_caOo">
    <mxGraphModel dx="1026" dy="650" grid="1" gridSize="10" guides="1" tooltips="1" connect="1" arrows="1" fold="1" page="1" pageScale="1" pageWidth="827" pageHeight="1169" math="0" shadow="0">
      <root>
        <mxCell id="0" />
        <mxCell id="1" parent="0" />
        <mxCell id="aSNwbk181C1lArDExzLo-1" value="Producer 1" style="rounded=0;whiteSpace=wrap;html=1;" vertex="1" parent="1">
          <mxGeometry x="20" y="140" width="120" height="30" as="geometry" />
        </mxCell>
        <mxCell id="aSNwbk181C1lArDExzLo-2" value="Producer 2" style="rounded=0;whiteSpace=wrap;html=1;" vertex="1" parent="1">
          <mxGeometry x="20" y="180" width="120" height="30" as="geometry" />
        </mxCell>
        <mxCell id="aSNwbk181C1lArDExzLo-3" value="Producer 3" style="rounded=0;whiteSpace=wrap;html=1;" vertex="1" parent="1">
          <mxGeometry x="20" y="220" width="120" height="30" as="geometry" />
        </mxCell>
        <mxCell id="aSNwbk181C1lArDExzLo-4" value="Producer 4" style="rounded=0;whiteSpace=wrap;html=1;" vertex="1" parent="1">
          <mxGeometry x="20" y="260" width="120" height="30" as="geometry" />
        </mxCell>
        <mxCell id="aSNwbk181C1lArDExzLo-5" value="Producer 5" style="rounded=0;whiteSpace=wrap;html=1;" vertex="1" parent="1">
          <mxGeometry x="20" y="300" width="120" height="30" as="geometry" />
        </mxCell>
        <mxCell id="aSNwbk181C1lArDExzLo-6" value="" style="shape=step;perimeter=stepPerimeter;whiteSpace=wrap;html=1;fixedSize=1;" vertex="1" parent="1">
          <mxGeometry x="180" y="200" width="430" height="50" as="geometry" />
        </mxCell>
      </root>
    </mxGraphModel>
  </diagram>
</mxfile>
